<svg width="81" height="82" viewBox="0 0 81 82" fill="none" xmlns="http://www.w3.org/2000/svg">
<g filter="url(#filter0_i_956_77)">
<path d="M45.1091 54.3533L14.0005 54.3533L14.0005 61.1742C14.0044 64.9396 17.0043 67.9911 20.7057 67.995L38.1477 67.995C38.224 67.9982 38.3136 68 38.4035 68C42.107 68 45.1092 64.9462 45.1092 61.1791L45.1092 61.1714L45.1092 61.1718L45.1091 54.3533ZM18.6092 59.0412L40.5005 59.0412L40.5005 61.1789C40.5005 62.357 39.5617 63.3119 38.4035 63.3119C38.3687 63.3119 38.334 63.311 38.2996 63.3093L38.3045 63.3095L20.7061 63.3095C19.5485 63.3082 18.6105 62.354 18.6092 61.1766L18.6092 61.1765L18.6092 59.0412ZM28.4026 23.0383C20.4522 23.0476 14.0096 29.6009 14.0005 37.687L14.0005 59.0412L43.8417 59.0412L48.4873 52.7595C49.4113 51.5493 50.162 50.1432 50.6681 48.6224L50.6972 48.5217C51.255 47.0068 51.5868 45.2566 51.6074 43.4303L51.6075 43.4212C51.6076 43.4086 51.6076 43.3938 51.6076 43.379C51.6076 41.4968 50.8405 39.7969 49.607 38.5851L49.605 38.5833C48.4043 37.3606 46.7463 36.6028 44.9142 36.5979L44.8788 36.5979C44.1274 36.599 43.4057 36.7267 42.7328 36.9613L42.7794 36.9471C42.3718 29.1881 36.0939 23.0519 28.404 23.0382L28.4026 23.0382L28.4026 23.0383ZM18.6092 54.3533L18.6092 37.6878C18.6092 32.1861 22.9939 27.7261 28.4026 27.7261C33.8114 27.7261 38.1962 32.1862 38.1962 37.6879L38.1962 43.3837L42.8049 43.3837L42.8049 43.3578C42.8101 42.7931 43.0392 42.2839 43.4061 41.9166L43.4293 41.8929C43.8005 41.5148 44.3122 41.2793 44.8778 41.2741L44.9017 41.2741C45.4635 41.275 45.9714 41.5088 46.3371 41.8857L46.3949 41.9445C46.7629 42.301 46.9918 42.803 46.9918 43.3595L46.9918 43.3702L46.9918 43.3697C46.9767 44.6557 46.7422 45.8814 46.3249 47.0162L46.3235 47.0145C45.9619 48.1188 45.4513 49.0764 44.8051 49.9217L44.8211 49.8999L44.8027 49.9233L41.5304 54.3556L18.6092 54.3533ZM38.1961 47.7433L42.8048 47.7433L42.8048 43.2665L38.1961 43.2665L38.1961 47.7433ZM38.0763 59.0412L53.7159 59.0412C57.391 59.0019 60.3599 55.982 60.3985 52.2474L60.3985 45.3994L46.8513 45.3994L46.3305 47.0121C45.9688 48.1163 45.4581 49.074 44.812 49.9193L44.8281 49.8975L44.8096 49.9209L38.0763 59.0412ZM53.6952 54.3533L47.3029 54.3533L48.4873 52.7594C49.0768 51.9871 49.6077 51.1139 50.0431 50.1854L50.0796 50.0991L55.8013 50.0991L55.8013 52.2226C55.7833 53.396 54.8497 54.3416 53.6962 54.3533L53.6952 54.3533ZM43.798 14C39.772 14.0099 36.1333 15.6882 33.513 18.3909L33.5114 18.3925C31.6734 20.275 30.3567 22.6863 29.8009 25.3822L29.7852 25.4735L29.3682 27.5433L31.3475 28.1784C35.3491 29.4781 38.1962 33.2266 38.1962 37.6515L38.1962 37.6675L38.1962 37.6667L38.1962 43.3836L42.8049 43.3836L42.8049 43.3648C42.8085 42.7975 43.0378 42.2855 43.4061 41.9165L43.4294 41.8927C43.8006 41.5146 44.3122 41.2792 44.8778 41.274L44.9018 41.274C45.4636 41.2749 45.9715 41.5087 46.3372 41.8856L46.395 41.9444C46.763 42.3008 46.9919 42.8029 46.9919 43.3593L46.9919 43.37L46.9919 43.3695C46.9908 44.6938 46.7552 45.9618 46.325 47.1333L46.3489 47.0589L45.2198 50.2068L59.2763 50.2068L63.885 43.7774C65.8252 41.182 66.9951 37.8973 67.0005 34.3349L67.0005 34.3337C66.9953 30.5693 63.9959 27.5192 60.2952 27.5152L60.281 27.5152C59.5276 27.5164 58.8044 27.6459 58.1308 27.8832L58.1771 27.8691C57.7571 20.1227 51.4805 14.0027 43.7982 14.0001L43.7979 14.0001L43.798 14ZM34.8663 24.5853C35.3489 23.4621 35.997 22.5023 36.7909 21.6901L36.7905 21.6906C38.5737 19.8494 41.0494 18.7067 43.7875 18.6997L43.7959 18.6997C49.2047 18.6997 53.5893 23.1597 53.5893 28.6614C53.5893 28.6812 53.5893 28.7009 53.5892 28.7207L53.5892 28.7177L53.5892 34.3619L58.1978 34.3385L58.1978 34.2635C58.2044 33.7105 58.4327 33.213 58.7963 32.8578L58.797 32.8572L58.85 32.8033C59.2147 32.4268 59.7208 32.1931 60.2807 32.1916L60.2949 32.1916C61.4525 32.1928 62.3905 33.147 62.3918 34.3244L62.3918 34.3245C62.3901 36.8239 61.5703 39.1282 60.1901 40.9757L60.2096 40.9485L60.1867 40.9813L56.9375 45.5051L51.4578 45.5051C51.5509 44.8695 51.6052 44.1342 51.6076 43.3864L51.6076 43.3837L51.6076 43.3567C51.6076 41.4765 50.8404 39.7784 49.6071 38.569L49.605 38.567C48.4045 37.3441 46.7464 36.5863 44.9142 36.5816L44.8788 36.5816C44.1275 36.5827 43.4057 36.7104 42.7328 36.945L42.7796 36.9307C42.4997 31.5358 39.3926 26.94 34.9477 24.6236L34.8664 24.5853L34.8663 24.5853ZM53.5892 38.813L58.198 38.813L58.198 34.336L53.5893 34.336L53.5892 38.813Z" fill="black" fill-opacity="0.7"/>
</g>
<defs>
<filter id="filter0_i_956_77" x="14.0005" y="14" width="53" height="55" filterUnits="userSpaceOnUse" color-interpolation-filters="sRGB">
<feFlood flood-opacity="0" result="BackgroundImageFix"/>
<feBlend mode="normal" in="SourceGraphic" in2="BackgroundImageFix" result="shape"/>
<feColorMatrix in="SourceAlpha" type="matrix" values="0 0 0 0 0 0 0 0 0 0 0 0 0 0 0 0 0 0 127 0" result="hardAlpha"/>
<feOffset dy="1"/>
<feGaussianBlur stdDeviation="4"/>
<feComposite in2="hardAlpha" operator="arithmetic" k2="-1" k3="1"/>
<feColorMatrix type="matrix" values="0 0 0 0 0 0 0 0 0 0 0 0 0 0 0 0 0 0 0.42 0"/>
<feBlend mode="normal" in2="shape" result="effect1_innerShadow_956_77"/>
</filter>
</defs>
</svg>
