<svg width="48" height="53" viewBox="0 0 48 53" fill="none" xmlns="http://www.w3.org/2000/svg">
<path d="M34.125 34.125C34.125 32.676 32.949 31.5 31.5 31.5H15.75C14.3036 31.5 13.125 32.676 13.125 34.125V39.375H34.125V34.125ZM13.125 44.625H34.125V52.5H13.125V44.625Z" fill="black" fill-opacity="0.69"/>
<path d="M47.25 26.25C47.25 18.4616 41.5616 11.991 34.125 10.7362V7.875C34.125 3.53325 30.5917 0 26.25 0H21C16.6583 0 13.125 3.53325 13.125 7.875V10.7362C5.68837 11.991 0 18.4616 0 26.25V47.25C0 50.1454 2.35462 52.5 5.25 52.5H7.875V34.125C7.875 29.7833 11.4082 26.25 15.75 26.25H31.5C35.8418 26.25 39.375 29.7833 39.375 34.125V52.5H42C44.8954 52.5 47.25 50.1454 47.25 47.25V26.25ZM18.375 7.875C18.375 6.426 19.5536 5.25 21 5.25H26.25C27.699 5.25 28.875 6.426 28.875 7.875V10.5H18.375V7.875Z" fill="black" fill-opacity="0.69"/>
</svg>
