<svg width="53" height="42" viewBox="0 0 53 42" fill="none" xmlns="http://www.w3.org/2000/svg">
<g filter="url(#filter0_i_956_71)">
<path d="M52.8252 22.8003L48.6523 6.11986C48.1085 3.94428 46.6658 2.07621 44.6957 0.99668C42.723 -0.0800974 40.3739 -0.298574 38.2373 0.415606L36.8341 0.881934C36.0621 1.13805 35.6453 1.97064 35.9029 2.7399L36.3685 4.13338C36.6252 4.90264 37.4589 5.31848 38.2299 5.06236L39.4427 4.65938C40.4429 4.32707 41.559 4.33166 42.4939 4.81818C43.4407 5.31113 44.1105 6.15475 44.3682 7.18838L47.907 21.3086C45.8652 20.6834 43.3257 20.1648 40.4355 20.1648C37.2362 20.1648 33.6283 20.8092 29.8677 22.6194H23.1341C19.3735 20.8074 15.7657 20.1639 12.5654 20.1639C9.67434 20.1639 7.13476 20.6825 5.09297 21.3077L8.63182 7.18654C8.88854 6.15383 9.56024 5.3093 10.5071 4.81727C11.4419 4.33074 12.5571 4.32615 13.5573 4.65846L14.7691 5.06145C15.5402 5.31756 16.3739 4.90172 16.6306 4.13246L17.0962 2.73898C17.3538 1.96973 16.937 1.13713 16.165 0.881016L14.7618 0.414688C12.6252 -0.299492 10.2761 -0.0819332 8.30333 0.995762C6.33332 2.07621 4.89054 3.94336 4.34674 6.11803L0.174826 22.8003C0.0588244 23.2654 0.000115503 23.7429 0 24.2222L0 30.6709C0 36.445 4.74608 41.1257 10.6 41.1257H14.0156C19.5622 41.1257 24.1711 36.9085 24.5861 31.453L24.8557 27.9069H28.1452L28.4148 31.453C28.8289 36.9085 33.4378 41.1257 38.9844 41.1257H42.4C48.2539 41.1257 53 36.445 53 30.6719V24.2231C53 23.743 52.9411 23.2657 52.8252 22.8003ZM18.7138 31.0088C18.5325 33.3872 16.4686 35.2507 14.0156 35.2507H10.6C8.00245 35.2507 5.88889 33.1963 5.88889 30.6709V27.2249C7.55618 26.6291 9.88413 26.0389 12.5673 26.0389C14.7627 26.0389 16.9158 26.4363 19.0018 27.2249L18.7138 31.0088ZM47.1111 30.6719C47.1111 33.1972 44.9976 35.2507 42.4 35.2507H38.9844C36.5304 35.2507 34.4666 33.3872 34.2862 31.0088L33.9982 27.2249C36.0842 26.4363 38.2382 26.0389 40.4346 26.0389C43.114 26.0389 45.4429 26.63 47.1102 27.2258V30.6719H47.1111Z" fill="black" fill-opacity="0.69"/>
</g>
<defs>
<filter id="filter0_i_956_71" x="0" y="0" width="53" height="43.126" filterUnits="userSpaceOnUse" color-interpolation-filters="sRGB">
<feFlood flood-opacity="0" result="BackgroundImageFix"/>
<feBlend mode="normal" in="SourceGraphic" in2="BackgroundImageFix" result="shape"/>
<feColorMatrix in="SourceAlpha" type="matrix" values="0 0 0 0 0 0 0 0 0 0 0 0 0 0 0 0 0 0 127 0" result="hardAlpha"/>
<feOffset dy="2"/>
<feGaussianBlur stdDeviation="2"/>
<feComposite in2="hardAlpha" operator="arithmetic" k2="-1" k3="1"/>
<feColorMatrix type="matrix" values="0 0 0 0 0 0 0 0 0 0 0 0 0 0 0 0 0 0 0.5 0"/>
<feBlend mode="normal" in2="shape" result="effect1_innerShadow_956_71"/>
</filter>
</defs>
</svg>
