<svg width="24" height="21" viewBox="0 0 24 21" fill="none" xmlns="http://www.w3.org/2000/svg">
<g filter="url(#filter0_dd_744_388)">
<path d="M22.9085 14.7741L14.3352 2.04059C13.9902 1.55586 13.5295 1.16646 12.9958 0.908292C12.462 0.65012 11.8723 0.531486 11.2811 0.563328C10.6898 0.595171 10.1161 0.776464 9.61268 1.09049C9.10929 1.40452 8.69248 1.84118 8.40067 2.3602L1.22374 15.9419C0.970343 16.4241 0.847409 16.965 0.867302 17.5102C0.887195 18.0554 1.04921 18.5858 1.33707 19.0479C1.6691 19.5676 2.13215 19.9892 2.6789 20.2696C3.22565 20.55 3.83649 20.6792 4.44899 20.6438L20.1992 19.7955C20.8081 19.7693 21.3994 19.5817 21.9134 19.2517C22.4274 18.9217 22.8459 18.4609 23.1267 17.9159C23.3714 17.4201 23.4803 16.8674 23.4419 16.315C23.4035 15.7627 23.2194 15.2307 22.9085 14.7741ZM12.1045 16.0821C11.9015 16.093 11.6997 16.043 11.5249 15.9385C11.35 15.8339 11.2098 15.6794 11.1221 15.4946C11.0343 15.3098 11.003 15.1029 11.0319 14.9001C11.0609 14.6973 11.1489 14.5077 11.2848 14.3553C11.4207 14.2029 11.5985 14.0946 11.7955 14.0439C11.9926 13.9933 12.2001 14.0027 12.3919 14.0708C12.5836 14.139 12.751 14.263 12.8729 14.427C12.9947 14.591 13.0655 14.7878 13.0764 14.9924C13.0909 15.2667 12.9967 15.5356 12.8145 15.74C12.6322 15.9444 12.3768 16.0674 12.1045 16.0821ZM12.9117 11.8892C12.9263 12.1635 12.8321 12.4324 12.6498 12.6368C12.4676 12.8412 12.2122 12.9642 11.9399 12.9789C11.6676 12.9935 11.4006 12.8986 11.1978 12.715C10.9949 12.5314 10.8728 12.2741 10.8582 11.9998L10.6387 7.86215C10.6241 7.58781 10.7184 7.31888 10.9006 7.11452C11.0829 6.91016 11.3382 6.78712 11.6105 6.77245C11.8829 6.75779 12.1498 6.8527 12.3526 7.03632C12.5555 7.21994 12.6776 7.47722 12.6922 7.75156L12.9117 11.8892Z" fill="#FF4747"/>
</g>
<defs>
<filter id="filter0_dd_744_388" x="0.865234" y="0.558594" width="22.5842" height="20.0908" filterUnits="userSpaceOnUse" color-interpolation-filters="sRGB">
<feFlood flood-opacity="0" result="BackgroundImageFix"/>
<feColorMatrix in="SourceAlpha" type="matrix" values="0 0 0 0 0 0 0 0 0 0 0 0 0 0 0 0 0 0 127 0" result="hardAlpha"/>
<feOffset/>
<feComposite in2="hardAlpha" operator="out"/>
<feColorMatrix type="matrix" values="0 0 0 0 1 0 0 0 0 0 0 0 0 0 0 0 0 0 1 0"/>
<feBlend mode="normal" in2="BackgroundImageFix" result="effect1_dropShadow_744_388"/>
<feColorMatrix in="SourceAlpha" type="matrix" values="0 0 0 0 0 0 0 0 0 0 0 0 0 0 0 0 0 0 127 0" result="hardAlpha"/>
<feOffset/>
<feComposite in2="hardAlpha" operator="out"/>
<feColorMatrix type="matrix" values="0 0 0 0 1 0 0 0 0 0 0 0 0 0 0 0 0 0 1 0"/>
<feBlend mode="normal" in2="effect1_dropShadow_744_388" result="effect2_dropShadow_744_388"/>
<feBlend mode="normal" in="SourceGraphic" in2="effect2_dropShadow_744_388" result="shape"/>
</filter>
</defs>
</svg>
