<svg width="82" height="79" viewBox="0 0 82 79" fill="none" xmlns="http://www.w3.org/2000/svg">
<g filter="url(#filter0_ii_956_81)">
<path d="M26.6597 41.2495C27.4333 36.6512 29.879 22.5889 34.6243 22.5889C35.7656 22.5889 36.7838 23.064 37.6406 23.7106C38.4673 24.33 39.478 24.6654 40.5175 24.6654C41.557 24.6654 42.5677 24.33 43.3944 23.7106C44.2512 23.0696 45.2694 22.5889 46.4107 22.5889C51.1553 22.5889 53.6009 36.648 54.3762 41.2479C51.2131 42.2566 46.736 43.1003 40.5183 43.1003C34.3007 43.1003 29.8203 42.2582 26.6597 41.2495ZM15.0103 38.2705C15.2534 38.11 15.5444 38.0345 15.8365 38.0563C16.1286 38.0781 16.4047 38.1959 16.6203 38.3907C16.7018 38.4628 24.876 45.6642 40.5192 45.6642C56.0751 45.6642 64.3414 38.458 64.4245 38.3859C64.6408 38.194 64.9161 38.0787 65.2068 38.0586C65.4974 38.0384 65.7866 38.1144 66.0281 38.2746C66.2696 38.4347 66.4497 38.6697 66.5395 38.9421C66.6293 39.2145 66.6238 39.5087 66.5237 39.7776C66.4642 39.9395 60.2204 55.92 40.5183 55.92C20.8162 55.92 14.5725 39.9395 14.513 39.7776C14.412 39.5081 14.406 39.213 14.496 38.9397C14.5861 38.6664 14.7669 38.4307 15.0095 38.2705L15.0103 38.2705Z" fill="black" fill-opacity="0.65"/>
</g>
<defs>
<filter id="filter0_ii_956_81" x="14.4326" y="22.5889" width="52.1704" height="37.3311" filterUnits="userSpaceOnUse" color-interpolation-filters="sRGB">
<feFlood flood-opacity="0" result="BackgroundImageFix"/>
<feBlend mode="normal" in="SourceGraphic" in2="BackgroundImageFix" result="shape"/>
<feColorMatrix in="SourceAlpha" type="matrix" values="0 0 0 0 0 0 0 0 0 0 0 0 0 0 0 0 0 0 127 0" result="hardAlpha"/>
<feOffset dy="3"/>
<feGaussianBlur stdDeviation="4"/>
<feComposite in2="hardAlpha" operator="arithmetic" k2="-1" k3="1"/>
<feColorMatrix type="matrix" values="0 0 0 0 0 0 0 0 0 0 0 0 0 0 0 0 0 0 1 0"/>
<feBlend mode="normal" in2="shape" result="effect1_innerShadow_956_81"/>
<feColorMatrix in="SourceAlpha" type="matrix" values="0 0 0 0 0 0 0 0 0 0 0 0 0 0 0 0 0 0 127 0" result="hardAlpha"/>
<feOffset dy="4"/>
<feGaussianBlur stdDeviation="4"/>
<feComposite in2="hardAlpha" operator="arithmetic" k2="-1" k3="1"/>
<feColorMatrix type="matrix" values="0 0 0 0 0 0 0 0 0 0 0 0 0 0 0 0 0 0 0.25 0"/>
<feBlend mode="normal" in2="effect1_innerShadow_956_81" result="effect2_innerShadow_956_81"/>
</filter>
</defs>
</svg>
