<svg width="23" height="26" viewBox="0 0 23 26" fill="none" xmlns="http://www.w3.org/2000/svg">
<path d="M4.26468 1.30645C6.43358 1.18964 7.65873 3.7828 6.2177 5.41157C4.76383 7.02872 2.07394 6.07793 1.958 3.89285C1.92345 3.2417 2.14706 2.6034 2.57965 2.11835C3.01224 1.63331 3.61836 1.34126 4.26468 1.30645ZM2.76265 7.54276L6.41809 7.34589C7.06442 7.31108 7.69799 7.53636 8.17944 7.97218C8.66089 8.40799 8.95078 9.01864 8.98533 9.66979L9.34359 16.4215L7.51587 16.5199L8.0044 25.7267L3.13047 25.9892L2.64194 16.7824L0.814218 16.8808L0.455962 10.1292C0.421411 9.47801 0.645026 8.8397 1.07761 8.35466C1.5102 7.86962 2.11633 7.57757 2.76265 7.54276ZM21.7143 7.75317L14.4034 8.14691L14.5336 10.6021L21.8445 10.2083M21.9097 11.4359L18.2542 11.6328L18.3845 14.0879L22.0399 13.891M21.3234 0.38772L14.0125 0.781462L14.1428 3.23661L21.4537 2.84287M21.5188 4.07044L17.8634 4.26732L17.9937 6.72246L21.6491 6.52559M22.1051 15.1186L14.7942 15.5124L14.9245 17.9675L22.2354 17.5738M22.4959 22.4841L15.185 22.8778L15.3153 25.333L22.6262 24.9392M22.3005 18.8013L18.645 18.9982L18.7753 21.4534L22.4308 21.2565" fill="#29004A"/>
</svg>
