<svg width="23" height="24" viewBox="0 0 23 24" fill="none" xmlns="http://www.w3.org/2000/svg">
<path fill-rule="evenodd" clip-rule="evenodd" d="M20.878 3.14699C21.4892 3.70018 21.8571 4.47529 21.901 5.3018L21.932 5.88611C21.9347 5.93777 21.917 5.98841 21.8827 6.02689C21.8483 6.06537 21.8002 6.08854 21.749 6.0913L0.482731 7.23663C0.431457 7.23939 0.381194 7.22152 0.343 7.18695C0.304805 7.15237 0.281808 7.10393 0.279067 7.05227L0.248062 6.46795C0.204206 5.64144 0.488043 4.83123 1.03713 4.21556C1.58622 3.59989 2.35559 3.22919 3.17597 3.185L3.94929 3.14335L3.90795 2.36427C3.90237 2.2588 3.91809 2.1533 3.95417 2.05414C3.99026 1.95498 4.04595 1.86423 4.11787 1.7874C4.1898 1.71056 4.27646 1.64924 4.3726 1.60714C4.46874 1.56505 4.57237 1.54305 4.6772 1.5425C5.09445 1.54102 5.4335 1.88363 5.45575 2.30288L5.49593 3.06006L16.3224 2.47698L16.281 1.69789C16.2755 1.59243 16.2912 1.48692 16.3273 1.38776C16.3633 1.2886 16.419 1.19786 16.491 1.12102C16.5629 1.04419 16.6495 0.982863 16.7457 0.940767C16.8418 0.898671 16.9455 0.876679 17.0503 0.876123C17.4675 0.874649 17.8066 1.21726 17.8288 1.63651L17.869 2.39368L18.6423 2.35203C19.4627 2.30785 20.2669 2.59381 20.878 3.14699ZM2.01531 22.6474C1.4042 22.0942 1.03624 21.3191 0.992388 20.4926L0.38004 8.95234C0.377984 8.9136 0.391289 8.87562 0.417028 8.84676C0.442766 8.8179 0.47883 8.80052 0.517286 8.79845L21.8802 7.64791C21.9187 7.64584 21.9563 7.65925 21.985 7.68518C22.0136 7.71111 22.0309 7.74744 22.0329 7.78618L22.6453 19.3264C22.6891 20.1529 22.4053 20.9632 21.8562 21.5788C21.3071 22.1945 20.5378 22.5652 19.7174 22.6094L4.25102 23.4424C3.43063 23.4865 2.62643 23.2006 2.01531 22.6474ZM17.7362 9.63124C17.5386 9.5131 17.3107 9.45664 17.0813 9.469C16.7737 9.48556 16.4851 9.62458 16.2792 9.85546C16.0733 10.0863 15.9669 10.3902 15.9833 10.7001C15.9956 10.9312 16.0756 11.1535 16.2133 11.3388C16.3509 11.5241 16.5401 11.6642 16.7567 11.7412C16.9734 11.8182 17.2078 11.8288 17.4304 11.7716C17.6531 11.7144 17.8538 11.592 18.0074 11.4198C18.1609 11.2476 18.2604 11.0334 18.2931 10.8043C18.3258 10.5752 18.2904 10.3415 18.1913 10.1327C18.0921 9.92388 17.9338 9.74938 17.7362 9.63124ZM17.9429 13.5267C17.7453 13.4085 17.5174 13.3521 17.288 13.3644C16.9804 13.381 16.6918 13.52 16.4859 13.7509C16.28 13.9818 16.1736 14.2856 16.19 14.5955C16.2023 14.8267 16.2823 15.049 16.42 15.2343C16.5576 15.4196 16.7468 15.5596 16.9634 15.6367C17.1801 15.7137 17.4145 15.7243 17.6371 15.6671C17.8598 15.6099 18.0605 15.4874 18.2141 15.3152C18.3676 15.1431 18.4671 14.9289 18.4998 14.6998C18.5325 14.4707 18.4971 14.237 18.398 14.0281C18.2988 13.8193 18.1405 13.6448 17.9429 13.5267ZM13.8696 9.83948C13.672 9.72134 13.4441 9.66488 13.2147 9.67724C12.9071 9.69381 12.6186 9.83282 12.4127 10.0637C12.2067 10.2946 12.1003 10.5984 12.1167 10.9083C12.129 11.1395 12.209 11.3618 12.3467 11.5471C12.4843 11.7324 12.6735 11.8724 12.8901 11.9495C13.1068 12.0265 13.3412 12.0371 13.5638 11.9799C13.7865 11.9227 13.9872 11.8002 14.1408 11.628C14.2944 11.4559 14.3938 11.2417 14.4265 11.0126C14.4592 10.7835 14.4238 10.5497 14.3247 10.3409C14.2255 10.1321 14.0672 9.95762 13.8696 9.83948ZM14.0763 13.7349C13.8787 13.6168 13.6508 13.5603 13.4214 13.5727C13.1138 13.5893 12.8253 13.7283 12.6194 13.9591C12.4134 14.19 12.307 14.4938 12.3234 14.8038C12.3357 15.0349 12.4157 15.2572 12.5534 15.4425C12.691 15.6278 12.8802 15.7679 13.0968 15.8449C13.3135 15.9219 13.5479 15.9325 13.7705 15.8753C13.9932 15.8181 14.1939 15.6957 14.3475 15.5235C14.5011 15.3513 14.6005 15.1371 14.6332 14.908C14.6659 14.6789 14.6305 14.4452 14.5314 14.2364C14.4322 14.0276 14.2739 13.8531 14.0763 13.7349ZM14.283 17.6304C14.0854 17.5122 13.8575 17.4558 13.6281 17.4681C13.3205 17.4847 13.032 17.6237 12.8261 17.8546C12.6201 18.0855 12.5137 18.3893 12.5301 18.6992C12.5424 18.9304 12.6224 19.1526 12.7601 19.338C12.8977 19.5233 13.0869 19.6633 13.3035 19.7403C13.5202 19.8174 13.7546 19.828 13.9772 19.7708C14.1999 19.7135 14.4006 19.5911 14.5542 19.4189C14.7078 19.2468 14.8072 19.0326 14.8399 18.8035C14.8726 18.5744 14.8372 18.3406 14.7381 18.1318C14.6389 17.923 14.4806 17.7485 14.283 17.6304ZM10.2097 13.9432C10.0122 13.825 9.78425 13.7686 9.55483 13.7809C9.24718 13.7975 8.95867 13.9365 8.75276 14.1674C8.54685 14.3983 8.44041 14.7021 8.45686 15.012C8.46912 15.2432 8.54914 15.4654 8.6868 15.6508C8.82446 15.8361 9.01357 15.9761 9.23022 16.0531C9.44687 16.1302 9.68133 16.1408 9.90395 16.0835C10.1266 16.0263 10.3274 15.9039 10.4809 15.7317C10.6345 15.5596 10.7339 15.3454 10.7666 15.1163C10.7993 14.8872 10.7639 14.6534 10.6648 14.4446C10.5657 14.2358 10.4073 14.0613 10.2097 13.9432ZM10.4164 17.8386C10.2189 17.7205 9.99095 17.664 9.76153 17.6764C9.45388 17.6929 9.16537 17.832 8.95946 18.0628C8.75355 18.2937 8.64711 18.5975 8.66356 18.9075C8.67582 19.1386 8.75584 19.3609 8.8935 19.5462C9.03116 19.7315 9.22027 19.8716 9.43692 19.9486C9.65357 20.0256 9.88803 20.0362 10.1107 19.979C10.3333 19.9218 10.5341 19.7993 10.6876 19.6272C10.8412 19.455 10.9406 19.2408 10.9733 19.0117C11.006 18.7826 10.9706 18.5489 10.8715 18.3401C10.7724 18.1313 10.614 17.9568 10.4164 17.8386ZM6.34313 14.1514C6.14556 14.0333 5.91766 13.9768 5.68824 13.9892C5.38059 14.0057 5.09208 14.1448 4.88617 14.3756C4.68026 14.6065 4.57382 14.9103 4.59027 15.2203C4.60253 15.4514 4.68255 15.6737 4.82021 15.859C4.95787 16.0443 5.14698 16.1843 5.36363 16.2614C5.58028 16.3384 5.81474 16.349 6.03736 16.2918C6.25999 16.2346 6.46077 16.1121 6.61432 15.94C6.76787 15.7678 6.8673 15.5536 6.90003 15.3245C6.93276 15.0954 6.89732 14.8617 6.79819 14.6529C6.69907 14.4441 6.54071 14.2695 6.34313 14.1514ZM6.54983 18.0469C6.35226 17.9287 6.12436 17.8723 5.89494 17.8846C5.58729 17.9012 5.29878 18.0402 5.09287 18.2711C4.88696 18.5019 4.78052 18.8058 4.79697 19.1157C4.80923 19.3469 4.88925 19.5691 5.02691 19.7544C5.16457 19.9398 5.35368 20.0798 5.57033 20.1568C5.78698 20.2339 6.02144 20.2444 6.24406 20.1872C6.46669 20.13 6.66747 20.0076 6.82102 19.8354C6.97457 19.6632 7.074 19.4491 7.10673 19.22C7.13946 18.9909 7.10402 18.7571 7.00489 18.5483C6.90577 18.3395 6.74741 18.165 6.54983 18.0469Z" fill="#29004A"/>
</svg>
