<svg width="27" height="24" viewBox="0 0 27 24" fill="none" xmlns="http://www.w3.org/2000/svg">
<path d="M22.9751 2.0211L17.1932 2.33457C17.1932 2.33457 17.2646 2.69881 17.2729 2.85612C17.3807 4.9012 15.8516 6.61432 13.8202 6.72445L10.6948 6.89389C8.6633 7.00403 6.96285 5.466 6.85505 3.42093C6.84676 3.26361 6.82741 2.89655 6.8795 2.89373L2.13936 3.15071C0.993395 3.21284 0.10554 4.20755 0.166349 5.36118L0.995574 21.0925C1.05638 22.2462 2.04375 23.1392 3.18971 23.0771L24.0255 21.9475C25.1714 21.8853 26.0593 20.8906 25.9985 19.737L25.1693 4.00566C25.1084 2.85202 24.1211 1.95898 22.9751 2.0211ZM11.1466 18.4387L8.17753 18.5997L5.20843 18.7606C4.53127 18.7973 3.97721 18.1963 3.94127 17.5146C3.88599 16.4659 4.94946 15.8298 6.07055 15.2957C6.83531 14.9387 6.9229 14.6184 6.90355 14.2514C6.88697 13.9367 6.66203 13.6334 6.38776 13.3853C5.89684 12.9912 5.60323 12.3761 5.56729 11.6944C5.49819 10.3835 6.22149 9.23992 7.6279 9.16367C9.03431 9.08742 9.8737 10.1463 9.9428 11.4572C9.97874 12.1389 9.75146 12.7823 9.30477 13.2272C9.05814 13.5035 8.86637 13.8294 8.88295 14.144C8.89954 14.4587 9.0203 14.7677 9.82099 15.0924C10.9918 15.5022 12.1161 16.0197 12.1714 17.0684C12.3115 17.7445 11.8238 18.402 11.1466 18.4387ZM22.652 15.7114C22.6686 16.026 22.4713 16.2471 22.1587 16.264L14.8662 16.6594C14.5537 16.6763 14.3343 16.4779 14.3177 16.1633L14.2624 15.1145C14.2458 14.7999 14.4431 14.5788 14.7557 14.5619L22.0482 14.1665C22.3607 14.1496 22.5801 14.348 22.5967 14.6627L22.652 15.7114ZM23.4727 11.4599C23.4892 11.7745 23.2919 11.9956 22.9794 12.0125L14.6451 12.4644C14.3326 12.4813 14.1131 12.2829 14.0966 11.9682L14.0413 10.9195C14.0247 10.6049 14.222 10.3838 14.5345 10.3669L22.8688 9.91502C23.1814 9.89807 23.4008 10.0965 23.4174 10.4112L23.4727 11.4599Z" fill="#29004A"/>
<path d="M10.5809 4.79126L13.7059 4.62186C14.5913 4.57387 15.2325 3.85564 15.1855 2.96442C15.1385 2.07319 14.4255 1.42837 13.5401 1.47637L10.4151 1.64577C9.52963 1.69377 8.88847 2.41199 8.93545 3.30321C8.98244 4.19444 9.69546 4.83926 10.5809 4.79126Z" fill="#29004A"/>
</svg>
