<svg width="50" height="50" viewBox="0 0 50 50" fill="none" xmlns="http://www.w3.org/2000/svg">
<g filter="url(#filter0_i_956_73)">
<path d="M25.0002 49C23.1349 49 21.6172 47.4978 21.6172 45.6512C21.6172 43.8047 23.1349 42.3027 25.0002 42.3027C26.8654 42.3027 28.3831 43.8047 28.3831 45.6512C28.3831 47.4978 26.8654 49 25.0002 49ZM25.0002 44.0104C24.0859 44.0104 23.3422 44.7466 23.3422 45.6515C23.3422 46.5567 24.0859 47.2929 25.0002 47.2929C25.9144 47.2929 26.6581 46.5567 26.6581 45.6515C26.6581 44.7466 25.9144 44.0104 25.0002 44.0104ZM25.0002 41.8116C21.8834 41.8116 19.3478 39.3017 19.3478 36.2167C19.3478 34.5522 20.0858 33.0554 21.255 32.0296C19.8653 31.8141 18.4905 31.4778 17.1496 31.0208C17.1901 31.2282 17.2114 31.4416 17.2114 31.6605C17.2114 33.5068 15.694 35.009 13.8285 35.009C11.9629 35.009 10.4455 33.507 10.4455 31.6605C10.4455 30.3799 11.1755 29.265 12.2453 28.7018C10.7445 27.7707 9.32605 26.6592 8.02169 25.3679C-1.34052 16.1012 -1.34052 10.5166 8.0214 1.25C8.35806 0.916487 8.90429 0.916487 9.24095 1.25C9.57789 1.58323 9.57789 2.1239 9.24095 2.45713C0.551473 11.0585 0.551473 15.5594 9.24095 24.1607C13.5853 28.4605 19.2934 30.611 24.9999 30.6116C30.7078 30.6121 36.4136 28.4617 40.7588 24.1607C49.4483 15.5594 49.4483 11.0585 40.7588 2.45713C40.4219 2.1239 40.4219 1.58323 40.7588 1.25C41.0955 0.916487 41.6417 0.916487 41.9783 1.25C51.3405 10.5166 51.3405 16.1012 41.9783 25.3679C40.6737 26.6592 39.2555 27.7702 37.7548 28.7018C38.8245 29.265 39.5545 30.3799 39.5545 31.6605C39.5545 33.5068 38.0371 35.009 36.1716 35.009C34.306 35.009 32.7886 33.507 32.7886 31.6605C32.7886 31.4416 32.8099 31.2279 32.8504 31.0208C31.5093 31.4775 30.1348 31.8141 28.745 32.0296C29.9143 33.0551 30.6523 34.5522 30.6523 36.2167C30.6526 39.3017 28.1169 41.8116 25.0002 41.8116ZM25.0002 32.3292C22.8345 32.3292 21.0727 34.073 21.0727 36.2167C21.0727 38.3603 22.8345 40.1042 25.0002 40.1042C27.1658 40.1042 28.9276 38.3603 28.9276 36.2167C28.9276 34.073 27.1658 32.3292 25.0002 32.3292ZM36.1718 30.0194C35.2576 30.0194 34.5139 30.7556 34.5139 31.6608C34.5139 32.5657 35.2576 33.3019 36.1718 33.3019C37.0861 33.3019 37.8298 32.5657 37.8298 31.6608C37.8298 30.7556 37.0861 30.0194 36.1718 30.0194ZM13.8285 30.0194C12.9142 30.0194 12.1705 30.7556 12.1705 31.6608C12.1705 32.5657 12.9142 33.3019 13.8285 33.3019C14.7427 33.3019 15.4864 32.5657 15.4864 31.6608C15.4864 30.7556 14.7427 30.0194 13.8285 30.0194ZM25.0002 39.4559C24.7713 39.4559 24.552 39.366 24.3901 39.2058L21.9803 36.8203C21.8185 36.66 21.7279 36.4432 21.7279 36.2167C21.7279 35.9902 21.8188 35.773 21.9806 35.6131L24.3904 33.2279C24.727 32.8944 25.2733 32.8944 25.6099 33.2279L28.0197 35.6131C28.1816 35.7733 28.2724 35.9902 28.2724 36.2167C28.2724 36.4432 28.1816 36.6603 28.02 36.8203L25.6102 39.2058C25.4481 39.366 25.229 39.4559 25.0002 39.4559ZM23.8099 36.2167L25.0002 37.3948L26.1904 36.2167L25.0002 35.0386L23.8099 36.2167Z" fill="black" fill-opacity="0.7"/>
</g>
<path d="M25.0002 49C23.1349 49 21.6172 47.4978 21.6172 45.6512C21.6172 43.8047 23.1349 42.3027 25.0002 42.3027C26.8654 42.3027 28.3831 43.8047 28.3831 45.6512C28.3831 47.4978 26.8654 49 25.0002 49ZM25.0002 44.0104C24.0859 44.0104 23.3422 44.7466 23.3422 45.6515C23.3422 46.5567 24.0859 47.2929 25.0002 47.2929C25.9144 47.2929 26.6581 46.5567 26.6581 45.6515C26.6581 44.7466 25.9144 44.0104 25.0002 44.0104ZM25.0002 41.8116C21.8834 41.8116 19.3478 39.3017 19.3478 36.2167C19.3478 34.5522 20.0858 33.0554 21.255 32.0296C19.8653 31.8141 18.4905 31.4778 17.1496 31.0208C17.1901 31.2282 17.2114 31.4416 17.2114 31.6605C17.2114 33.5068 15.694 35.009 13.8285 35.009C11.9629 35.009 10.4455 33.507 10.4455 31.6605C10.4455 30.3799 11.1755 29.265 12.2453 28.7018C10.7445 27.7707 9.32605 26.6592 8.02169 25.3679C-1.34052 16.1012 -1.34052 10.5166 8.0214 1.25C8.35806 0.916487 8.90429 0.916487 9.24095 1.25C9.57789 1.58323 9.57789 2.1239 9.24095 2.45713C0.551473 11.0585 0.551473 15.5594 9.24095 24.1607C13.5853 28.4605 19.2934 30.611 24.9999 30.6116C30.7078 30.6121 36.4136 28.4617 40.7588 24.1607C49.4483 15.5594 49.4483 11.0585 40.7588 2.45713C40.4219 2.1239 40.4219 1.58323 40.7588 1.25C41.0955 0.916487 41.6417 0.916487 41.9783 1.25C51.3405 10.5166 51.3405 16.1012 41.9783 25.3679C40.6737 26.6592 39.2555 27.7702 37.7548 28.7018C38.8245 29.265 39.5545 30.3799 39.5545 31.6605C39.5545 33.5068 38.0371 35.009 36.1716 35.009C34.306 35.009 32.7886 33.507 32.7886 31.6605C32.7886 31.4416 32.8099 31.2279 32.8504 31.0208C31.5093 31.4775 30.1348 31.8141 28.745 32.0296C29.9143 33.0551 30.6523 34.5522 30.6523 36.2167C30.6526 39.3017 28.1169 41.8116 25.0002 41.8116ZM25.0002 32.3292C22.8345 32.3292 21.0727 34.073 21.0727 36.2167C21.0727 38.3603 22.8345 40.1042 25.0002 40.1042C27.1658 40.1042 28.9276 38.3603 28.9276 36.2167C28.9276 34.073 27.1658 32.3292 25.0002 32.3292ZM36.1718 30.0194C35.2576 30.0194 34.5139 30.7556 34.5139 31.6608C34.5139 32.5657 35.2576 33.3019 36.1718 33.3019C37.0861 33.3019 37.8298 32.5657 37.8298 31.6608C37.8298 30.7556 37.0861 30.0194 36.1718 30.0194ZM13.8285 30.0194C12.9142 30.0194 12.1705 30.7556 12.1705 31.6608C12.1705 32.5657 12.9142 33.3019 13.8285 33.3019C14.7427 33.3019 15.4864 32.5657 15.4864 31.6608C15.4864 30.7556 14.7427 30.0194 13.8285 30.0194ZM25.0002 39.4559C24.7713 39.4559 24.552 39.366 24.3901 39.2058L21.9803 36.8203C21.8185 36.66 21.7279 36.4432 21.7279 36.2167C21.7279 35.9902 21.8188 35.773 21.9806 35.6131L24.3904 33.2279C24.727 32.8944 25.2733 32.8944 25.6099 33.2279L28.0197 35.6131C28.1816 35.7733 28.2724 35.9902 28.2724 36.2167C28.2724 36.4432 28.1816 36.6603 28.02 36.8203L25.6102 39.2058C25.4481 39.366 25.229 39.4559 25.0002 39.4559ZM23.8099 36.2167L25.0002 37.3948L26.1904 36.2167L25.0002 35.0386L23.8099 36.2167Z" stroke="black" stroke-opacity="0.7"/>
<defs>
<filter id="filter0_i_956_73" x="0.5" y="0.5" width="49" height="49" filterUnits="userSpaceOnUse" color-interpolation-filters="sRGB">
<feFlood flood-opacity="0" result="BackgroundImageFix"/>
<feBlend mode="normal" in="SourceGraphic" in2="BackgroundImageFix" result="shape"/>
<feColorMatrix in="SourceAlpha" type="matrix" values="0 0 0 0 0 0 0 0 0 0 0 0 0 0 0 0 0 0 127 0" result="hardAlpha"/>
<feOffset dy="1"/>
<feComposite in2="hardAlpha" operator="arithmetic" k2="-1" k3="1"/>
<feColorMatrix type="matrix" values="0 0 0 0 0 0 0 0 0 0 0 0 0 0 0 0 0 0 0.25 0"/>
<feBlend mode="normal" in2="shape" result="effect1_innerShadow_956_73"/>
</filter>
</defs>
</svg>
