<svg width="18" height="20" viewBox="0 0 18 20" fill="none" xmlns="http://www.w3.org/2000/svg">
<path d="M16.945 0.715531L13.2471 0.914685C12.7463 0.941659 12.5305 1.56335 12.9006 1.90284L13.7339 2.6572L10.1584 6.66625C9.08426 6.06201 7.83293 5.74633 6.51294 5.81742C2.79169 6.01784 -0.0660376 9.2221 0.132893 12.9711C0.331823 16.7201 3.51235 19.5992 7.23359 19.3988C10.9548 19.1984 13.8126 15.9941 13.6136 12.2451C13.5431 10.9152 13.0981 9.69542 12.3873 8.68382L15.9627 4.67477L16.7961 5.42913C17.1708 5.76837 17.7612 5.48119 17.7344 4.97661L17.5367 1.25117C17.5202 0.93993 17.2539 0.698892 16.945 0.715531ZM7.07345 16.3807C5.00921 16.4919 3.23896 14.8894 3.12861 12.8098C3.01827 10.7301 4.60885 8.94668 6.67309 8.8355C8.73733 8.72433 10.5076 10.3268 10.6179 12.4064C10.7283 14.4861 9.13769 16.2695 7.07345 16.3807Z" fill="#29004A"/>
</svg>
