<svg width="56" height="49" viewBox="0 0 56 49" fill="none" xmlns="http://www.w3.org/2000/svg">
<g filter="url(#filter0_i_956_75)">
<path d="M18.1003 23.4613C14.9608 24.4614 12.8547 27.4043 13.0665 30.5529C14.064 29.3355 15.5873 28.2847 17.4327 27.5938L18.1003 23.4613ZM8.38352 28.2321L5.60717 11.0526C5.58179 10.8976 5.63167 10.8019 5.62817 10.799C10.6821 7.73081 16.4011 6.10866 22.1664 6.10866C22.3073 6.10866 22.449 6.12493 22.5908 6.12684C23.8114 4.83774 25.3671 3.94197 27.1049 3.63859C28.7577 3.34957 30.4342 3.20315 32.1081 3.12946C31.234 1.79441 29.9661 0.810596 28.4532 0.545501C26.3611 0.180877 24.2585 0 22.1655 0C15.4578 0 8.83939 1.85853 2.90519 5.46076C0.790329 6.74508 -0.342788 9.42473 0.0920842 12.114L2.86844 29.2934C4.11355 36.9994 14.7972 42.8908 20.7577 42.8908C21.0718 42.8908 21.3483 42.8467 21.6335 42.8142C20.4506 41.1796 19.1013 38.9402 18.1773 36.3467C14.0115 35.1045 8.89714 31.4065 8.38352 28.2321ZM16.9191 15.0769C16.8552 14.6826 16.724 14.3237 16.563 13.9859C15.8411 14.8386 14.7543 15.4932 13.4725 15.7392C12.1906 15.9861 10.9639 15.7774 10.018 15.2444C9.97251 15.6214 9.96201 16.0081 10.0259 16.4024C10.3619 18.4791 12.1766 19.8658 14.0806 19.5002C15.9837 19.1347 17.2551 17.1536 16.9191 15.0769ZM53.0948 11.5704C45.3091 6.84461 36.3448 5.1191 27.5468 6.65608C25.1571 7.07334 23.2523 9.16921 22.8183 11.8584L20.0419 29.0379C18.6953 37.3688 28.3789 47.8213 33.894 48.8817C39.409 49.9431 51.7849 43.7339 53.1316 35.403L55.9079 18.2236C56.3428 15.5334 55.2097 12.8537 53.0948 11.5704ZM29.1865 20.8343C29.5225 18.7576 31.3372 17.3709 33.2412 17.7374C35.1452 18.104 36.4157 20.084 36.0806 22.1608C36.0167 22.555 35.8854 22.9139 35.7244 23.2518C35.0026 22.3991 33.9158 21.7445 32.634 21.4985C31.3521 21.2516 30.1254 21.4602 29.1795 21.9933C29.1331 21.6153 29.1226 21.2286 29.1865 20.8343ZM35.3526 39.8561C30.4806 38.9191 27.1696 34.1838 27.5616 29.0513C29.3641 31.4955 32.48 33.4699 36.2669 34.1982C40.0539 34.9265 43.6011 34.2336 46.0607 32.6095C44.82 37.5803 40.2237 40.793 35.3526 39.8561ZM46.7537 25.3725C46.0319 24.5198 44.9442 23.8652 43.6624 23.6193C42.3805 23.3723 41.1538 23.581 40.2079 24.114C40.1624 23.737 40.1519 23.3503 40.2158 22.956C40.5518 20.8793 42.3665 19.4926 44.2705 19.8582C46.1736 20.2247 47.445 22.2048 47.1099 24.2815C47.046 24.6768 46.9147 25.0356 46.7537 25.3725Z" fill="black" fill-opacity="0.7"/>
</g>
<defs>
<filter id="filter0_i_956_75" x="0" y="0" width="56" height="53" filterUnits="userSpaceOnUse" color-interpolation-filters="sRGB">
<feFlood flood-opacity="0" result="BackgroundImageFix"/>
<feBlend mode="normal" in="SourceGraphic" in2="BackgroundImageFix" result="shape"/>
<feColorMatrix in="SourceAlpha" type="matrix" values="0 0 0 0 0 0 0 0 0 0 0 0 0 0 0 0 0 0 127 0" result="hardAlpha"/>
<feOffset dy="4"/>
<feGaussianBlur stdDeviation="3.5"/>
<feComposite in2="hardAlpha" operator="arithmetic" k2="-1" k3="1"/>
<feColorMatrix type="matrix" values="0 0 0 0 0 0 0 0 0 0 0 0 0 0 0 0 0 0 0.28 0"/>
<feBlend mode="normal" in2="shape" result="effect1_innerShadow_956_75"/>
</filter>
</defs>
</svg>
