<svg width="13" height="19" viewBox="0 0 13 19" fill="none" xmlns="http://www.w3.org/2000/svg">
<path d="M12.8245 5.72057C12.6588 2.59639 9.8406 0.206204 6.53283 0.384351C3.22505 0.562497 0.675879 3.24175 0.841654 6.36593C0.984492 9.05784 3.09717 11.2062 5.79443 11.6324L5.90203 13.6602L4.40417 13.7408C4.12956 13.7556 3.91614 13.9799 3.9299 14.2393L4.01331 15.8112C4.02708 16.0706 4.26301 16.2707 4.53762 16.2559L6.03548 16.1752L6.11055 17.5899C6.12431 17.8493 6.36025 18.0494 6.63486 18.0346L8.29915 17.945C8.57376 17.9302 8.78718 17.7059 8.77342 17.4465L8.69835 16.0318L10.1962 15.9511C10.4708 15.9363 10.6842 15.712 10.6705 15.4527L10.5871 13.8808C10.5733 13.6214 10.3374 13.4213 10.0628 13.4361L8.56489 13.5167L8.4573 11.489C11.0941 10.7755 12.9674 8.41247 12.8245 5.72057ZM3.50452 6.22252C3.41256 4.48948 4.8314 2.99824 6.66628 2.89942C8.50116 2.8006 10.0697 4.13094 10.1617 5.86398C10.2536 7.59702 8.8348 9.08826 6.99992 9.18708C5.16504 9.2859 3.59648 7.95555 3.50452 6.22252Z" fill="#29004A"/>
</svg>
