<svg width="47" height="49" viewBox="0 0 47 49" fill="none" xmlns="http://www.w3.org/2000/svg">
<path d="M31.0182 28.0545L39.7062 31.7311L36.0296 40.4191M33.1069 14.1239C30.8926 6.97753 26.873 2.21197 22.5395 2.44363C16.4099 2.77131 11.9705 12.9762 12.626 25.2375C13.2815 37.4988 18.7835 47.1723 24.913 46.8446C25.6723 46.804 26.4078 46.6111 27.1094 46.2819M39.6901 31.7383C35.7902 33.9171 30.3713 35.4202 24.3195 35.7437C12.0582 36.3992 1.85327 31.9598 1.5256 25.8303C1.19793 19.7007 10.8714 14.1987 23.1327 13.5432C33.8733 12.9691 43.0351 16.3042 45.3639 21.2604" stroke="white" stroke-width="3" stroke-linecap="round" stroke-linejoin="round"/>
</svg>
