<svg width="68" height="54" viewBox="0 0 68 54" fill="none" xmlns="http://www.w3.org/2000/svg">
<g filter="url(#filter0_i_956_79)">
<path d="M26.6882 22.5097C27.105 22.3236 27.5186 22.1224 27.9268 21.9083C28.4521 23.2704 29.391 24.2246 30.8294 24.6205C31.4535 24.7905 32.097 24.4226 32.2667 23.7975C32.4364 23.1725 32.069 22.528 31.4449 22.357C30.592 22.1224 30.2192 21.4898 29.9958 20.7002L30.1462 20.6034C30.651 20.2741 31.142 19.932 31.6157 19.5845C32.1303 20.9616 33.0519 21.9578 34.5387 22.3677C35.1628 22.5409 35.8084 22.1741 35.9814 21.549C36.1543 20.924 35.788 20.2774 35.1639 20.1042C34.1498 19.8255 33.7942 18.9552 33.6052 18.0117C33.8555 17.7997 34.0972 17.5878 34.3303 17.3791C34.457 17.265 34.5816 17.1521 34.703 17.0402L35.007 16.782C36.0028 15.9353 36.6839 15.3554 37.337 15.364C38.5305 15.3791 39.3738 16.4786 40.202 17.5566C40.5705 18.0364 40.9368 18.5152 41.3525 18.938C44.5677 22.216 48.5874 20.9638 52.2366 19.2392C53.7985 18.6916 54.8276 18.6668 55.4625 19.1112C56.1167 19.5695 56.4819 20.5861 56.6796 22.0902C56.7569 22.7916 56.8407 23.364 56.9406 23.8642L54.501 24.0848C54.2421 24.0837 54.0606 24.1751 54.0606 24.4818L54.0606 26.6732C54.0294 27.308 54.2722 27.6124 54.7954 27.5812L58.2673 27.4661L58.307 27.5511C58.8334 28.6689 59.3888 29.8168 59.6863 31.0207C58.4177 31.5242 57.149 31.9223 55.8825 32.217C52.5653 32.9916 49.4199 33.0895 46.0759 32.3698C41.5007 31.3854 39.3061 31.9201 34.7922 32.9303C30.1838 33.962 24.7696 33.4198 19.9055 32.9335L18.2566 32.77C16.0996 32.5635 13.9533 32.3246 12.0991 32.0707C10.4942 31.8502 9.12246 31.6199 8.17929 31.3919L8.17177 31.3908L8.19863 31.2154C8.9248 26.8335 10.6489 26.7916 13.2625 26.7292C14.8932 26.6905 16.8139 26.6442 19.0462 25.8384C20.6349 25.265 22.0852 24.5743 23.3345 23.9783C23.7534 23.7782 24.1498 23.5888 24.5129 23.4221C25.0049 24.9293 25.9556 26.0224 27.5304 26.4559C28.1545 26.6259 28.798 26.258 28.9677 25.6329C29.1375 25.0078 28.769 24.3623 28.1449 24.1924C27.2844 23.9557 26.9106 23.308 26.6882 22.5097ZM23.1873 37.7006L23.284 36.8614L21.8252 36.6947L21.7231 37.5876C21.0152 37.5285 20.3084 37.4607 19.6015 37.4015L19.7358 36.5742L18.2888 36.3375L18.1384 37.2681C17.4864 37.2025 16.7892 37.1239 16.0781 37.025L16.2317 36.1793L14.7912 35.9211L14.6322 36.7947C13.9135 36.6635 13.2002 36.5086 12.5267 36.3203L12.7415 35.5683L11.3289 35.1648L11.1302 35.8587C9.75088 35.3133 8.69169 34.5742 8.32968 33.5575C8.26952 33.3875 8.22118 33.21 8.18574 33.0261C9.15576 33.238 10.4341 33.4489 11.8875 33.6479C13.7459 33.9029 15.9159 34.1439 18.1073 34.3537L19.7498 34.5172C24.731 35.0153 30.2761 35.5715 35.1349 34.4828C39.42 33.5231 41.4008 32.9938 45.7461 33.9287C49.3061 34.6958 52.7114 34.5946 56.2445 33.7695C57.4541 33.4876 58.668 33.1164 59.884 32.6527C59.884 34.2418 59.2717 35.4887 57.9418 36.4107C57.6732 36.5968 57.3821 36.7646 57.0695 36.9174L56.9234 36.2439L55.4872 36.5548L55.6838 37.4531C54.9694 37.6705 54.2454 37.8135 53.5084 37.9211L53.4032 36.87L51.9444 37.0142L52.0507 38.0728C51.3611 38.1202 50.6542 38.1384 49.9431 38.1309L49.8743 37.1379L48.4102 37.2358L48.4692 38.0814C47.7613 38.0416 47.0588 37.9803 46.3713 37.9028L46.3423 36.8916L44.8781 36.9324L44.9007 37.7178C44.4044 37.65 43.9231 37.5822 43.4838 37.5198C40.2063 37.0572 39.2771 36.926 34.0016 37.7156C32.7297 37.9061 30.81 37.9738 28.6014 37.9405C26.9117 37.9158 25.0554 37.8318 23.1873 37.7006ZM26.3047 20.911C26.0705 20.5485 25.643 20.329 25.1854 20.3817C24.5408 20.4549 24.0778 21.038 24.152 21.6835L24.1659 21.804C23.6922 22.0138 23.1852 22.2558 22.6395 22.5162C21.3977 23.1079 19.9582 23.7943 18.5037 24.3204C16.5153 25.038 14.7353 25.081 13.2239 25.1165C9.80674 25.1983 7.55194 25.2521 6.60662 30.9551C6.43367 32.0008 6.44871 33.096 6.8075 34.1019C7.67225 36.529 10.9175 37.7167 14.1971 38.3472C16.7054 38.8291 19.9979 39.1508 23.1121 39.3412C25.0887 39.4617 26.9933 39.5306 28.5821 39.5543C30.8863 39.5887 32.8962 39.5166 34.2357 39.3165C39.2911 38.5591 40.1687 38.6839 43.2625 39.1207C45.3776 39.4198 47.3993 39.6973 49.5488 39.7425C53.5482 39.8297 59.71 39.2143 61.187 34.7044C61.5233 33.678 61.577 32.5473 61.4008 31.3628C61.1688 29.8061 60.434 28.2784 59.7658 26.8615C59.2717 25.8136 58.9451 25.1219 58.7077 24.2913C58.2114 22.5528 58.3597 20.7163 57.4874 19.0746C57.2006 18.5367 56.8385 18.1063 56.3852 17.789C55.2917 17.024 53.7824 16.9778 51.6661 17.7255L51.5909 17.7578C48.639 19.1564 45.1531 20.5098 42.5019 17.8051C42.1549 17.4522 41.8166 17.0111 41.4771 16.57C40.4158 15.1865 39.334 13.7761 37.3564 13.7503C36.0963 13.7341 35.2305 14.4711 33.965 15.548L33.6202 15.8406C33.4021 16.0429 33.1733 16.2473 32.9381 16.4538C32.7243 16.3247 32.4665 16.2623 32.199 16.2935C31.5545 16.3667 31.0915 16.9498 31.1656 17.5953C31.1763 17.69 31.1892 17.7847 31.2021 17.8772C30.6833 18.2752 30.1408 18.6668 29.5811 19.0423C29.3416 18.6991 28.928 18.4947 28.4843 18.5464C27.8409 18.6195 27.3779 19.2026 27.4509 19.8481C27.4692 20.002 27.4896 20.1526 27.5122 20.301C27.1147 20.5173 26.7108 20.7217 26.3047 20.911Z" fill="black" fill-opacity="0.51"/>
</g>
<path d="M26.6882 22.5097C27.105 22.3236 27.5186 22.1224 27.9268 21.9083C28.4521 23.2704 29.391 24.2246 30.8294 24.6205C31.4535 24.7905 32.097 24.4226 32.2667 23.7975C32.4364 23.1725 32.069 22.528 31.4449 22.357C30.592 22.1224 30.2192 21.4898 29.9958 20.7002L30.1462 20.6034C30.651 20.2741 31.142 19.932 31.6157 19.5845C32.1303 20.9616 33.0519 21.9578 34.5387 22.3677C35.1628 22.5409 35.8084 22.1741 35.9814 21.549C36.1543 20.924 35.788 20.2774 35.1639 20.1042C34.1498 19.8255 33.7942 18.9552 33.6052 18.0117C33.8555 17.7997 34.0972 17.5878 34.3303 17.3791C34.457 17.265 34.5816 17.1521 34.703 17.0402L35.007 16.782C36.0028 15.9353 36.6839 15.3554 37.337 15.364C38.5305 15.3791 39.3738 16.4786 40.202 17.5566C40.5705 18.0364 40.9368 18.5152 41.3525 18.938C44.5677 22.216 48.5874 20.9638 52.2366 19.2392C53.7985 18.6916 54.8276 18.6668 55.4625 19.1112C56.1167 19.5695 56.4819 20.5861 56.6796 22.0902C56.7569 22.7916 56.8407 23.364 56.9406 23.8642L54.501 24.0848C54.2421 24.0837 54.0606 24.1751 54.0606 24.4818L54.0606 26.6732C54.0294 27.308 54.2722 27.6124 54.7954 27.5812L58.2673 27.4661L58.307 27.5511C58.8334 28.6689 59.3888 29.8168 59.6863 31.0207C58.4177 31.5242 57.149 31.9223 55.8825 32.217C52.5653 32.9916 49.4199 33.0895 46.0759 32.3698C41.5007 31.3854 39.3061 31.9201 34.7922 32.9303C30.1838 33.962 24.7696 33.4198 19.9055 32.9335L18.2566 32.77C16.0996 32.5635 13.9533 32.3246 12.0991 32.0707C10.4942 31.8502 9.12246 31.6199 8.17929 31.3919L8.17177 31.3908L8.19863 31.2154C8.9248 26.8335 10.6489 26.7916 13.2625 26.7292C14.8932 26.6905 16.8139 26.6442 19.0462 25.8384C20.6349 25.265 22.0852 24.5743 23.3345 23.9783C23.7534 23.7782 24.1498 23.5888 24.5129 23.4221C25.0049 24.9293 25.9556 26.0224 27.5304 26.4559C28.1545 26.6259 28.798 26.258 28.9677 25.6329C29.1375 25.0078 28.769 24.3623 28.1449 24.1924C27.2844 23.9557 26.9106 23.308 26.6882 22.5097ZM23.1873 37.7006L23.284 36.8614L21.8252 36.6947L21.7231 37.5876C21.0152 37.5285 20.3084 37.4607 19.6015 37.4015L19.7358 36.5742L18.2888 36.3375L18.1384 37.2681C17.4864 37.2025 16.7892 37.1239 16.0781 37.025L16.2317 36.1793L14.7912 35.9211L14.6322 36.7947C13.9135 36.6635 13.2002 36.5086 12.5267 36.3203L12.7415 35.5683L11.3289 35.1648L11.1302 35.8587C9.75088 35.3133 8.69169 34.5742 8.32968 33.5575C8.26952 33.3875 8.22118 33.21 8.18574 33.0261C9.15576 33.238 10.4341 33.4489 11.8875 33.6479C13.7459 33.9029 15.9159 34.1439 18.1073 34.3537L19.7498 34.5172C24.731 35.0153 30.2761 35.5715 35.1349 34.4828C39.42 33.5231 41.4008 32.9938 45.7461 33.9287C49.3061 34.6958 52.7114 34.5946 56.2445 33.7695C57.4541 33.4876 58.668 33.1164 59.884 32.6527C59.884 34.2418 59.2717 35.4887 57.9418 36.4107C57.6732 36.5968 57.3821 36.7646 57.0695 36.9174L56.9234 36.2439L55.4872 36.5548L55.6838 37.4531C54.9694 37.6705 54.2454 37.8135 53.5084 37.9211L53.4032 36.87L51.9444 37.0142L52.0507 38.0728C51.3611 38.1202 50.6542 38.1384 49.9431 38.1309L49.8743 37.1379L48.4102 37.2358L48.4692 38.0814C47.7613 38.0416 47.0588 37.9803 46.3713 37.9028L46.3423 36.8916L44.8781 36.9324L44.9007 37.7178C44.4044 37.65 43.9231 37.5822 43.4838 37.5198C40.2063 37.0572 39.2771 36.926 34.0016 37.7156C32.7297 37.9061 30.81 37.9738 28.6014 37.9405C26.9117 37.9158 25.0554 37.8318 23.1873 37.7006ZM26.3047 20.911C26.0705 20.5485 25.643 20.329 25.1854 20.3817C24.5408 20.4549 24.0778 21.038 24.152 21.6835L24.1659 21.804C23.6922 22.0138 23.1852 22.2558 22.6395 22.5162C21.3977 23.1079 19.9582 23.7943 18.5037 24.3204C16.5153 25.038 14.7353 25.081 13.2239 25.1165C9.80674 25.1983 7.55194 25.2521 6.60662 30.9551C6.43367 32.0008 6.44871 33.096 6.8075 34.1019C7.67225 36.529 10.9175 37.7167 14.1971 38.3472C16.7054 38.8291 19.9979 39.1508 23.1121 39.3412C25.0887 39.4617 26.9933 39.5306 28.5821 39.5543C30.8863 39.5887 32.8962 39.5166 34.2357 39.3165C39.2911 38.5591 40.1687 38.6839 43.2625 39.1207C45.3776 39.4198 47.3993 39.6973 49.5488 39.7425C53.5482 39.8297 59.71 39.2143 61.187 34.7044C61.5233 33.678 61.577 32.5473 61.4008 31.3628C61.1688 29.8061 60.434 28.2784 59.7658 26.8615C59.2717 25.8136 58.9451 25.1219 58.7077 24.2913C58.2114 22.5528 58.3597 20.7163 57.4874 19.0746C57.2006 18.5367 56.8385 18.1063 56.3852 17.789C55.2917 17.024 53.7824 16.9778 51.6661 17.7255L51.5909 17.7578C48.639 19.1564 45.1531 20.5098 42.5019 17.8051C42.1549 17.4522 41.8166 17.0111 41.4771 16.57C40.4158 15.1865 39.334 13.7761 37.3564 13.7503C36.0963 13.7341 35.2305 14.4711 33.965 15.548L33.6202 15.8406C33.4021 16.0429 33.1733 16.2473 32.9381 16.4538C32.7243 16.3247 32.4665 16.2623 32.199 16.2935C31.5545 16.3667 31.0915 16.9498 31.1656 17.5953C31.1763 17.69 31.1892 17.7847 31.2021 17.8772C30.6833 18.2752 30.1408 18.6668 29.5811 19.0423C29.3416 18.6991 28.928 18.4947 28.4843 18.5464C27.8409 18.6195 27.3779 19.2026 27.4509 19.8481C27.4692 20.002 27.4896 20.1526 27.5122 20.301C27.1147 20.5173 26.7108 20.7217 26.3047 20.911Z" stroke="black" stroke-opacity="0.48" stroke-width="1.5"/>
<defs>
<filter id="filter0_i_956_79" x="5.74927" y="13" width="56.5" height="28.5" filterUnits="userSpaceOnUse" color-interpolation-filters="sRGB">
<feFlood flood-opacity="0" result="BackgroundImageFix"/>
<feBlend mode="normal" in="SourceGraphic" in2="BackgroundImageFix" result="shape"/>
<feColorMatrix in="SourceAlpha" type="matrix" values="0 0 0 0 0 0 0 0 0 0 0 0 0 0 0 0 0 0 127 0" result="hardAlpha"/>
<feOffset dy="1"/>
<feGaussianBlur stdDeviation="4"/>
<feComposite in2="hardAlpha" operator="arithmetic" k2="-1" k3="1"/>
<feColorMatrix type="matrix" values="0 0 0 0 0 0 0 0 0 0 0 0 0 0 0 0 0 0 0.46 0"/>
<feBlend mode="normal" in2="shape" result="effect1_innerShadow_956_79"/>
</filter>
</defs>
</svg>
