<svg width="112" height="113" viewBox="0 0 112 113" fill="none" xmlns="http://www.w3.org/2000/svg">
<g filter="url(#filter0_i_956_83)">
<path d="M67.8984 26.0343L62.6844 25.9866C57.2265 26.0163 52.8724 30.4665 52.9224 35.9942L52.9697 41.2276L68.0371 41.3654L67.8984 26.0343ZM58.1002 36.0425C58.087 33.3959 60.1583 31.2655 62.7616 31.2195L62.768 31.2194L62.812 36.0855L58.1002 36.0425ZM48.0157 25.8525L42.8379 25.8052L42.9757 41.0317L58.1466 41.1704L58.0989 35.9013C57.9702 30.3843 53.4866 25.9025 48.0167 25.8525L48.0157 25.8525L48.0157 25.8525ZM48.0631 31.0849C50.6822 31.1197 52.8284 33.252 52.9213 35.8841L52.9215 35.8905L48.1061 35.8465L48.0631 31.0849ZM65.8323 36.006L45.4602 35.8197C45.3797 35.8177 45.2848 35.816 45.1897 35.8151C39.0501 35.759 33.6976 38.9871 30.737 43.8776L30.6954 43.9514L30.6649 44.0061C27.6621 49.2336 25.9179 55.5357 25.9789 62.2794C25.9793 62.3176 25.9796 62.3558 25.9801 62.3938L25.9801 62.3879L26.1469 80.8244L36.5024 80.9191C37.6021 83.8668 40.367 85.9492 43.5892 85.9805L68.3393 86.2068C71.5616 86.2345 74.2893 84.2023 75.3195 81.3264L75.3359 81.2742L85.6914 81.3689L85.5245 62.9244C85.5244 62.8938 85.5241 62.8577 85.5238 62.8217C85.4628 56.0786 83.6041 49.7444 80.4121 44.2877L80.5063 44.4618L80.4747 44.4066C77.382 39.3878 71.9709 36.0622 65.8321 36.006L65.8323 36.006ZM45.4636 41.0518L65.6725 41.2365C65.7217 41.2362 65.7797 41.2363 65.8378 41.2369C70.1157 41.276 73.8893 43.5813 76.0322 47.0147L76.0619 47.0658C78.707 51.5872 80.294 57.0069 80.3462 62.7754C80.3465 62.8083 80.3468 62.8412 80.3469 62.8741L80.3468 62.8691L80.4664 76.0889L70.5638 75.9983L70.6006 78.6408L70.6007 78.6453C70.6066 79.2982 70.3509 79.8868 69.9323 80.3116L69.9323 80.3115C69.5169 80.7343 68.9384 80.9931 68.2964 80.9872L43.5552 80.761C42.2684 80.7493 41.2156 79.6855 41.2039 78.3851L41.193 75.7559L31.2776 75.6653L31.1578 62.4271C31.1574 62.3979 31.1571 62.3632 31.1567 62.3284C31.1046 56.5589 32.5935 51.1664 35.2356 46.5432L35.1573 46.6917C37.2676 43.2478 40.9991 41.0123 45.276 41.0514C45.3347 41.0519 45.3933 41.0528 45.4517 41.0541L45.4429 41.0541L45.4636 41.0518ZM70.6003 78.6147L75.7781 78.6621L75.5523 53.7033L70.3746 53.6559L70.6003 78.6147ZM36.0127 78.2985L41.1905 78.3459L40.9647 53.3871L35.7869 53.3397L36.0127 78.2985ZM53.3517 83.4536L58.5296 83.501L58.1229 38.5542L52.9451 38.5069L53.3517 83.4536ZM63.2557 73.6818L73.1452 73.7723L73.0979 68.5397L63.2083 68.4493L63.2557 73.6818ZM38.5576 73.4561L48.4472 73.5465L48.3999 68.3139L38.5103 68.2235L38.5576 73.4561Z" fill="black" fill-opacity="0.7"/>
</g>
<defs>
<filter id="filter0_i_956_83" x="25.9773" y="25.8057" width="59.7141" height="62.4014" filterUnits="userSpaceOnUse" color-interpolation-filters="sRGB">
<feFlood flood-opacity="0" result="BackgroundImageFix"/>
<feBlend mode="normal" in="SourceGraphic" in2="BackgroundImageFix" result="shape"/>
<feColorMatrix in="SourceAlpha" type="matrix" values="0 0 0 0 0 0 0 0 0 0 0 0 0 0 0 0 0 0 127 0" result="hardAlpha"/>
<feOffset dy="2"/>
<feGaussianBlur stdDeviation="1"/>
<feComposite in2="hardAlpha" operator="arithmetic" k2="-1" k3="1"/>
<feColorMatrix type="matrix" values="0 0 0 0 0 0 0 0 0 0 0 0 0 0 0 0 0 0 0.4 0"/>
<feBlend mode="normal" in2="shape" result="effect1_innerShadow_956_83"/>
</filter>
</defs>
</svg>
