<svg width="35" height="28" viewBox="0 0 35 28" fill="none" xmlns="http://www.w3.org/2000/svg">
<path d="M0.474312 5.14458L10.943 2.05208e-06C12.0237 1.48207 14.4164 2.51631 17.207 2.51631C19.9975 2.51631 22.3902 1.48207 23.471 9.56848e-07L33.9396 5.14458C34.3644 5.35783 34.5364 5.86962 34.3267 6.29078L31.2512 12.395C31.0361 12.8161 30.52 12.9867 30.0952 12.7788L27.0519 11.3021C26.482 11.0249 25.8152 11.4354 25.8152 12.0698L25.8152 25.5896C25.8152 26.5332 25.0464 27.2956 24.0947 27.2956L10.33 27.2956C9.37832 27.2956 8.60944 26.5332 8.60944 25.5896L8.60944 12.0644C8.60944 11.4354 7.94271 11.0195 7.37277 11.2968L4.32949 12.7735C3.90472 12.9867 3.38855 12.8161 3.17348 12.3896L0.0925604 6.29078C-0.122512 5.86962 0.0495438 5.3525 0.474312 5.14458Z" fill="black" fill-opacity="0.7"/>
</svg>
