<svg width="40" height="56" viewBox="0 0 40 56" fill="none" xmlns="http://www.w3.org/2000/svg">
<path d="M31.3077 4.26923H8.53842C7.3715 4.26923 6.40381 3.30154 6.40381 2.13462C6.40381 0.967692 7.3715 0 8.53842 0H31.3077C32.4746 0 33.4423 0.967692 33.4423 2.13462C33.4423 3.30154 32.4746 4.26923 31.3077 4.26923Z" fill="black" fill-opacity="0.7"/>
<path d="M31.3077 55.5002H8.53842C7.3715 55.5002 6.40381 54.5325 6.40381 53.3656C6.40381 52.1986 7.3715 51.231 8.53842 51.231H31.3077C32.4746 51.231 33.4423 52.1986 33.4423 53.3656C33.4423 54.5325 32.4746 55.5002 31.3077 55.5002Z" fill="black" fill-opacity="0.7"/>
<path d="M29.8846 7.82666H9.96154C3.33 7.82666 0 11.1567 0 17.7882V37.7113C0 44.3428 3.33 47.6728 9.96154 47.6728H29.8846C36.5162 47.6728 39.8462 44.3428 39.8462 37.7113V17.7882C39.8462 11.1567 36.5162 7.82666 29.8846 7.82666ZM27.0385 31.3074H18.5C17.3331 31.3074 16.3654 30.3397 16.3654 29.1728V20.6344C16.3654 19.4674 17.3331 18.4997 18.5 18.4997C19.6669 18.4997 20.6346 19.4674 20.6346 20.6344V27.0382H27.0385C28.2054 27.0382 29.1731 28.0059 29.1731 29.1728C29.1731 30.3397 28.2054 31.3074 27.0385 31.3074Z" fill="black" fill-opacity="0.7"/>
</svg>
